<svg width="48" height="48" viewBox="0 0 48 48" fill="none" xmlns="http://www.w3.org/2000/svg">
<rect width="48" height="48" rx="5" fill="#EBE0C7"/>
<path d="M16.032 13.276L13.368 12.772V10.252H19.236C19.62 10.252 20.364 10.228 21.468 10.18C22.86 10.084 24.12 10.036 25.248 10.036C27.84 10.036 29.88 10.348 31.368 10.972C32.856 11.596 33.912 12.496 34.536 13.672C35.16 14.824 35.472 16.288 35.472 18.064C35.472 21.136 34.536 23.524 32.664 25.228C30.792 26.932 28.128 27.784 24.672 27.784C23.592 27.784 22.764 27.748 22.188 27.676V34.228L26.94 34.624V37H13.26V34.624L16.032 34.264V13.276ZM22.152 25.192C22.632 25.312 23.424 25.372 24.528 25.372C27.648 25.372 29.208 22.984 29.208 18.208C29.208 16.216 28.812 14.764 28.02 13.852C27.252 12.916 26.088 12.448 24.528 12.448C23.856 12.448 23.328 12.484 22.944 12.556C22.56 12.604 22.296 12.64 22.152 12.664V25.192Z" fill="#3C3868"/>
<path d="M42 8.5C42 10.1803 42.0041 11.5488 42 11.5488C41.9959 11.5488 41.3854 11.1797 40.766 10.7299C40.1453 10.2787 39.608 9.8877 39.5697 9.86035L39.5 9.80977L38.3051 10.6793C37.6475 11.1578 37.0041 11.5488 37 11.5488C36.9959 11.5488 37 10.1803 37 8.5V5.4375H39.5H42V7V8.5Z" fill="#FFA73E"/>
<rect x="37" width="5" height="6" fill="#FFA73E"/>
</svg>
